<svg width="22" height="22" viewBox="0 0 22 22" fill="none" xmlns="http://www.w3.org/2000/svg">
<path d="M18.3614 8.73642L11.4864 15.6114C11.4226 15.6753 11.3467 15.7261 11.2633 15.7607C11.1798 15.7952 11.0904 15.8131 11 15.8131C10.9097 15.8131 10.8202 15.7952 10.7367 15.7607C10.6533 15.7261 10.5775 15.6753 10.5136 15.6114L3.63861 8.73642C3.50961 8.60742 3.43713 8.43245 3.43713 8.25002C3.43713 8.06758 3.50961 7.89261 3.63861 7.76361C3.76761 7.63461 3.94258 7.56213 4.12502 7.56213C4.30745 7.56213 4.48242 7.63461 4.61142 7.76361L11 14.1531L17.3886 7.76361C17.4525 7.69973 17.5283 7.64906 17.6118 7.6145C17.6952 7.57993 17.7847 7.56213 17.875 7.56213C17.9654 7.56213 18.0548 7.57993 18.1383 7.6145C18.2217 7.64906 18.2975 7.69973 18.3614 7.76361C18.4253 7.82749 18.476 7.90332 18.5105 7.98677C18.5451 8.07023 18.5629 8.15968 18.5629 8.25002C18.5629 8.34035 18.5451 8.4298 18.5105 8.51326C18.476 8.59672 18.4253 8.67255 18.3614 8.73642Z" fill="#000"/>
</svg>
