<svg width="32" height="33" viewBox="0 0 32 33" fill="none" xmlns="http://www.w3.org/2000/svg">
<path d="M27 6.33752H22V5.33752C22 4.54187 21.6839 3.77881 21.1213 3.2162C20.5587 2.6536 19.7956 2.33752 19 2.33752H13C12.2044 2.33752 11.4413 2.6536 10.8787 3.2162C10.3161 3.77881 10 4.54187 10 5.33752V6.33752H5C4.73478 6.33752 4.48043 6.44288 4.29289 6.63042C4.10536 6.81795 4 7.07231 4 7.33752C4 7.60274 4.10536 7.85709 4.29289 8.04463C4.48043 8.23217 4.73478 8.33752 5 8.33752H6V26.3375C6 26.868 6.21071 27.3767 6.58579 27.7517C6.96086 28.1268 7.46957 28.3375 8 28.3375H24C24.5304 28.3375 25.0391 28.1268 25.4142 27.7517C25.7893 27.3767 26 26.868 26 26.3375V8.33752H27C27.2652 8.33752 27.5196 8.23217 27.7071 8.04463C27.8946 7.85709 28 7.60274 28 7.33752C28 7.07231 27.8946 6.81795 27.7071 6.63042C27.5196 6.44288 27.2652 6.33752 27 6.33752ZM12 5.33752C12 5.07231 12.1054 4.81795 12.2929 4.63042C12.4804 4.44288 12.7348 4.33752 13 4.33752H19C19.2652 4.33752 19.5196 4.44288 19.7071 4.63042C19.8946 4.81795 20 5.07231 20 5.33752V6.33752H12V5.33752ZM24 26.3375H8V8.33752H24V26.3375ZM14 13.3375V21.3375C14 21.6027 13.8946 21.8571 13.7071 22.0446C13.5196 22.2322 13.2652 22.3375 13 22.3375C12.7348 22.3375 12.4804 22.2322 12.2929 22.0446C12.1054 21.8571 12 21.6027 12 21.3375V13.3375C12 13.0723 12.1054 12.818 12.2929 12.6304C12.4804 12.4429 12.7348 12.3375 13 12.3375C13.2652 12.3375 13.5196 12.4429 13.7071 12.6304C13.8946 12.818 14 13.0723 14 13.3375ZM20 13.3375V21.3375C20 21.6027 19.8946 21.8571 19.7071 22.0446C19.5196 22.2322 19.2652 22.3375 19 22.3375C18.7348 22.3375 18.4804 22.2322 18.2929 22.0446C18.1054 21.8571 18 21.6027 18 21.3375V13.3375C18 13.0723 18.1054 12.818 18.2929 12.6304C18.4804 12.4429 18.7348 12.3375 19 12.3375C19.2652 12.3375 19.5196 12.4429 19.7071 12.6304C19.8946 12.818 20 13.0723 20 13.3375Z" fill="#000"/>
</svg>
