<svg width="32" height="33" viewBox="0 0 32 33" fill="none" xmlns="http://www.w3.org/2000/svg">
<path d="M28.415 9.50872L22.8288 3.92372C22.643 3.73795 22.4225 3.59059 22.1799 3.49005C21.9372 3.38952 21.6771 3.33777 21.4144 3.33777C21.1517 3.33777 20.8916 3.38952 20.6489 3.49005C20.4062 3.59059 20.1857 3.73795 20 3.92372L4.58626 19.3375C4.39973 19.5225 4.25185 19.7428 4.15121 19.9855C4.05057 20.2282 3.99917 20.4885 4.00001 20.7512V26.3375C4.00001 26.8679 4.21072 27.3766 4.5858 27.7517C4.96087 28.1268 5.46958 28.3375 6.00001 28.3375H27C27.2652 28.3375 27.5196 28.2321 27.7071 28.0446C27.8947 27.857 28 27.6027 28 27.3375C28 27.0723 27.8947 26.8179 27.7071 26.6304C27.5196 26.4428 27.2652 26.3375 27 26.3375H14.415L28.415 12.3375C28.6008 12.1517 28.7481 11.9312 28.8487 11.6886C28.9492 11.4459 29.001 11.1858 29.001 10.9231C29.001 10.6604 28.9492 10.4003 28.8487 10.1576C28.7481 9.91494 28.6008 9.69444 28.415 9.50872ZM11.5863 26.3375H6.00001V20.7512L17 9.75122L22.5863 15.3375L11.5863 26.3375ZM24 13.9237L18.415 8.33747L21.415 5.33747L27 10.9237L24 13.9237Z" fill="#000"/>
</svg>
