<svg width="32" height="33" viewBox="0 0 32 33" fill="none" xmlns="http://www.w3.org/2000/svg">
<path d="M26 4.96289H6C5.46957 4.96289 4.96086 5.1736 4.58579 5.54868C4.21071 5.92375 4 6.43246 4 6.96289V26.9629C4 27.4933 4.21071 28.002 4.58579 28.3771C4.96086 28.7522 5.46957 28.9629 6 28.9629H26C26.5304 28.9629 27.0391 28.7522 27.4142 28.3771C27.7893 28.002 28 27.4933 28 26.9629V6.96289C28 6.43246 27.7893 5.92375 27.4142 5.54868C27.0391 5.1736 26.5304 4.96289 26 4.96289ZM6 6.96289H26V16.6354L22.9137 13.5479C22.5387 13.1731 22.0302 12.9626 21.5 12.9626C20.9698 12.9626 20.4613 13.1731 20.0863 13.5479L6.67125 26.9629H6V6.96289ZM26 26.9629H9.5L21.5 14.9629L26 19.4629V26.9629ZM12 15.9629C12.5933 15.9629 13.1734 15.7869 13.6667 15.4573C14.1601 15.1277 14.5446 14.6591 14.7716 14.1109C14.9987 13.5628 15.0581 12.9596 14.9424 12.3776C14.8266 11.7957 14.5409 11.2611 14.1213 10.8416C13.7018 10.422 13.1672 10.1363 12.5853 10.0205C12.0033 9.90478 11.4001 9.96419 10.8519 10.1913C10.3038 10.4183 9.83524 10.8028 9.50559 11.2962C9.17595 11.7895 9 12.3695 9 12.9629C9 13.7585 9.31607 14.5216 9.87868 15.0842C10.4413 15.6468 11.2044 15.9629 12 15.9629ZM12 11.9629C12.1978 11.9629 12.3911 12.0215 12.5556 12.1314C12.72 12.2413 12.8482 12.3975 12.9239 12.5802C12.9996 12.7629 13.0194 12.964 12.9808 13.158C12.9422 13.352 12.847 13.5301 12.7071 13.67C12.5673 13.8098 12.3891 13.9051 12.1951 13.9437C12.0011 13.9823 11.8 13.9625 11.6173 13.8868C11.4346 13.8111 11.2784 13.6829 11.1685 13.5185C11.0586 13.354 11 13.1607 11 12.9629C11 12.6977 11.1054 12.4433 11.2929 12.2558C11.4804 12.0682 11.7348 11.9629 12 11.9629Z" fill="#000"/>
</svg>
