<svg width="22" height="23" viewBox="0 0 22 23" fill="none" xmlns="http://www.w3.org/2000/svg">
<path d="M9.625 18.877C9.625 19.0594 9.55257 19.2342 9.42364 19.3632C9.2947 19.4921 9.11984 19.5645 8.9375 19.5645H4.125C3.76033 19.5645 3.41059 19.4196 3.15273 19.1618C2.89487 18.9039 2.75 18.5542 2.75 18.1895V4.43951C2.75 4.07484 2.89487 3.7251 3.15273 3.46724C3.41059 3.20938 3.76033 3.06451 4.125 3.06451H8.9375C9.11984 3.06451 9.2947 3.13695 9.42364 3.26588C9.55257 3.39481 9.625 3.56968 9.625 3.75201C9.625 3.93435 9.55257 4.10922 9.42364 4.23815C9.2947 4.36708 9.11984 4.43951 8.9375 4.43951H4.125V18.1895H8.9375C9.11984 18.1895 9.2947 18.2619 9.42364 18.3909C9.55257 18.5198 9.625 18.6947 9.625 18.877ZM19.0489 10.8281L15.6114 7.39061C15.4824 7.2616 15.3074 7.18913 15.125 7.18913C14.9426 7.18913 14.7676 7.2616 14.6386 7.39061C14.5096 7.51961 14.4371 7.69458 14.4371 7.87701C14.4371 8.05945 14.5096 8.23442 14.6386 8.36342L16.903 10.627H8.9375C8.75516 10.627 8.5803 10.6994 8.45136 10.8284C8.32243 10.9573 8.25 11.1322 8.25 11.3145C8.25 11.4969 8.32243 11.6717 8.45136 11.8007C8.5803 11.9296 8.75516 12.002 8.9375 12.002H16.903L14.6386 14.2656C14.5096 14.3946 14.4371 14.5696 14.4371 14.752C14.4371 14.9345 14.5096 15.1094 14.6386 15.2384C14.7676 15.3674 14.9426 15.4399 15.125 15.4399C15.3074 15.4399 15.4824 15.3674 15.6114 15.2384L19.0489 11.8009C19.1128 11.7371 19.1635 11.6612 19.1981 11.5778C19.2327 11.4943 19.2505 11.4049 19.2505 11.3145C19.2505 11.2242 19.2327 11.1347 19.1981 11.0512C19.1635 10.9678 19.1128 10.892 19.0489 10.8281Z" fill="#000"/>
</svg>
