<svg width="32" height="33" viewBox="0 0 32 33" fill="none" xmlns="http://www.w3.org/2000/svg">
<path d="M28.615 6.54855C28.4952 6.45521 28.3557 6.39038 28.2072 6.35898C28.0586 6.32757 27.9048 6.33042 27.7575 6.3673L20.1162 8.2773L12.4475 4.4423C12.2338 4.33572 11.9891 4.30912 11.7575 4.3673L3.7575 6.3673C3.54116 6.42137 3.3491 6.54621 3.21185 6.72196C3.0746 6.89772 3.00003 7.1143 3 7.3373V25.3373C3.00002 25.4892 3.03467 25.6392 3.10132 25.7758C3.16797 25.9123 3.26486 26.0319 3.38463 26.1254C3.50441 26.2189 3.64392 26.2839 3.79256 26.3154C3.94121 26.3469 4.09508 26.3441 4.2425 26.3073L11.8837 24.3973L19.5525 28.2323C19.6917 28.3009 19.8448 28.3368 20 28.3373C20.0818 28.3372 20.1632 28.3272 20.2425 28.3073L28.2425 26.3073C28.4588 26.2532 28.6509 26.1284 28.7881 25.9526C28.9254 25.7769 29 25.5603 29 25.3373V7.3373C29 7.1852 28.9654 7.03511 28.8987 6.89843C28.8319 6.76175 28.7349 6.64209 28.615 6.54855ZM13 6.9548L19 9.9548V25.7198L13 22.7198V6.9548ZM5 8.11855L11 6.61855V22.556L5 24.056V8.11855ZM27 24.556L21 26.056V10.1185L27 8.61855V24.556Z" fill="#000"/>
</svg>
