<svg width="32" height="33" viewBox="0 0 32 33" fill="none" xmlns="http://www.w3.org/2000/svg">
<path d="M16 8.3374C15.0111 8.3374 14.0444 8.63065 13.2221 9.18005C12.3999 9.72946 11.759 10.5104 11.3806 11.424C11.0022 12.3376 10.9031 13.3429 11.0961 14.3129C11.289 15.2828 11.7652 16.1737 12.4645 16.8729C13.1637 17.5722 14.0546 18.0484 15.0245 18.2413C15.9945 18.4343 16.9998 18.3352 17.9134 17.9568C18.827 17.5784 19.6079 16.9375 20.1573 16.1153C20.7068 15.293 21 14.3263 21 13.3374C21 12.0113 20.4732 10.7396 19.5355 9.80187C18.5979 8.86419 17.3261 8.3374 16 8.3374ZM16 16.3374C15.4067 16.3374 14.8266 16.1615 14.3333 15.8318C13.8399 15.5022 13.4554 15.0336 13.2284 14.4855C13.0013 13.9373 12.9419 13.3341 13.0576 12.7521C13.1734 12.1702 13.4591 11.6356 13.8787 11.2161C14.2982 10.7965 14.8328 10.5108 15.4147 10.395C15.9967 10.2793 16.5999 10.3387 17.1481 10.5658C17.6962 10.7928 18.1648 11.1773 18.4944 11.6707C18.8241 12.164 19 12.7441 19 13.3374C19 14.1331 18.6839 14.8961 18.1213 15.4587C17.5587 16.0213 16.7956 16.3374 16 16.3374ZM16 2.3374C13.0836 2.34071 10.2877 3.5007 8.22548 5.56288C6.1633 7.62507 5.00331 10.421 5 13.3374C5 17.2624 6.81375 21.4224 10.25 25.3687C11.794 27.1519 13.5318 28.7576 15.4312 30.1562C15.5994 30.2739 15.7997 30.3371 16.005 30.3371C16.2103 30.3371 16.4106 30.2739 16.5788 30.1562C18.4747 28.757 20.2091 27.1513 21.75 25.3687C25.1812 21.4224 27 17.2624 27 13.3374C26.9967 10.421 25.8367 7.62507 23.7745 5.56288C21.7123 3.5007 18.9164 2.34071 16 2.3374ZM16 28.0874C13.9338 26.4624 7 20.4937 7 13.3374C7 10.9505 7.94821 8.66127 9.63604 6.97344C11.3239 5.28561 13.6131 4.3374 16 4.3374C18.3869 4.3374 20.6761 5.28561 22.364 6.97344C24.0518 8.66127 25 10.9505 25 13.3374C25 20.4912 18.0662 26.4624 16 28.0874Z" fill="#000"/>
</svg>
