<svg width="32" height="33" viewBox="0 0 32 33" fill="none" xmlns="http://www.w3.org/2000/svg">
<path d="M26 7.96289H22.535L20.8312 5.40789C20.74 5.27108 20.6164 5.15889 20.4714 5.08127C20.3264 5.00365 20.1645 4.96299 20 4.96289H12C11.8355 4.96299 11.6736 5.00365 11.5286 5.08127C11.3836 5.15889 11.26 5.27108 11.1687 5.40789L9.46375 7.96289H6C5.20435 7.96289 4.44129 8.27896 3.87868 8.84157C3.31607 9.40418 3 10.1672 3 10.9629V24.9629C3 25.7585 3.31607 26.5216 3.87868 27.0842C4.44129 27.6468 5.20435 27.9629 6 27.9629H26C26.7956 27.9629 27.5587 27.6468 28.1213 27.0842C28.6839 26.5216 29 25.7585 29 24.9629V10.9629C29 10.1672 28.6839 9.40418 28.1213 8.84157C27.5587 8.27896 26.7956 7.96289 26 7.96289ZM27 24.9629C27 25.2281 26.8946 25.4825 26.7071 25.67C26.5196 25.8575 26.2652 25.9629 26 25.9629H6C5.73478 25.9629 5.48043 25.8575 5.29289 25.67C5.10536 25.4825 5 25.2281 5 24.9629V10.9629C5 10.6977 5.10536 10.4433 5.29289 10.2558C5.48043 10.0682 5.73478 9.96289 6 9.96289H10C10.1647 9.963 10.3268 9.92243 10.4721 9.8448C10.6173 9.76717 10.7411 9.65488 10.8325 9.51789L12.535 6.96289H19.4638L21.1675 9.51789C21.2589 9.65488 21.3827 9.76717 21.5279 9.8448C21.6732 9.92243 21.8353 9.963 22 9.96289H26C26.2652 9.96289 26.5196 10.0682 26.7071 10.2558C26.8946 10.4433 27 10.6977 27 10.9629V24.9629ZM16 11.9629C14.9122 11.9629 13.8488 12.2855 12.9444 12.8898C12.0399 13.4942 11.3349 14.3531 10.9187 15.3581C10.5024 16.3631 10.3935 17.469 10.6057 18.5359C10.8179 19.6028 11.3417 20.5828 12.1109 21.352C12.8801 22.1212 13.8601 22.645 14.927 22.8572C15.9939 23.0694 17.0998 22.9605 18.1048 22.5442C19.1098 22.1279 19.9687 21.423 20.5731 20.5185C21.1774 19.6141 21.5 18.5507 21.5 17.4629C21.4983 16.0047 20.9184 14.6067 19.8873 13.5756C18.8562 12.5445 17.4582 11.9645 16 11.9629ZM16 20.9629C15.3078 20.9629 14.6311 20.7576 14.0555 20.373C13.4799 19.9884 13.0313 19.4418 12.7664 18.8023C12.5015 18.1627 12.4322 17.459 12.5673 16.7801C12.7023 16.1011 13.0356 15.4775 13.5251 14.988C14.0146 14.4985 14.6382 14.1652 15.3172 14.0301C15.9961 13.8951 16.6999 13.9644 17.3394 14.2293C17.9789 14.4942 18.5256 14.9428 18.9101 15.5184C19.2947 16.094 19.5 16.7707 19.5 17.4629C19.5 18.3911 19.1313 19.2814 18.4749 19.9378C17.8185 20.5941 16.9283 20.9629 16 20.9629Z" fill="#000"/>
</svg>
