<svg width="22" height="22" viewBox="0 0 22 22" fill="none" xmlns="http://www.w3.org/2000/svg">
<path d="M11 6.87498C10.1841 6.87498 9.3866 7.11691 8.70825 7.57017C8.0299 8.02343 7.50119 8.66766 7.18898 9.42141C6.87676 10.1752 6.79507 11.0046 6.95424 11.8047C7.1134 12.6049 7.50627 13.3399 8.08316 13.9168C8.66005 14.4937 9.39506 14.8866 10.1952 15.0457C10.9954 15.2049 11.8248 15.1232 12.5785 14.811C13.3323 14.4988 13.9765 13.9701 14.4298 13.2917C14.883 12.6134 15.125 11.8158 15.125 11C15.1238 9.90631 14.6889 8.85776 13.9155 8.08442C13.1422 7.31108 12.0936 6.87612 11 6.87498ZM11 13.75C10.4561 13.75 9.92439 13.5887 9.47216 13.2865C9.01992 12.9843 8.66745 12.5549 8.45931 12.0524C8.25117 11.5499 8.19671 10.9969 8.30282 10.4635C8.40893 9.93003 8.67084 9.44003 9.05543 9.05543C9.44003 8.67084 9.93003 8.40893 10.4635 8.30282C10.9969 8.19671 11.5499 8.25117 12.0524 8.45931C12.5549 8.66745 12.9843 9.01992 13.2865 9.47216C13.5887 9.92439 13.75 10.4561 13.75 11C13.75 11.7293 13.4602 12.4288 12.9445 12.9445C12.4288 13.4602 11.7293 13.75 11 13.75ZM18.5625 11.1856C18.5659 11.0619 18.5659 10.9381 18.5625 10.8144L19.8447 9.21248C19.9119 9.12837 19.9584 9.02965 19.9805 8.92427C20.0026 8.81888 19.9996 8.70978 19.9719 8.60576C19.7617 7.81565 19.4472 7.05704 19.0369 6.3499C18.9831 6.25736 18.9085 6.17864 18.819 6.12001C18.7295 6.06138 18.6275 6.02445 18.5212 6.01217L16.4828 5.78529C16.398 5.69592 16.3121 5.60998 16.225 5.52748L15.9844 3.48388C15.972 3.3775 15.9349 3.27549 15.8761 3.18597C15.8173 3.09644 15.7385 3.02189 15.6458 2.96826C14.9384 2.55864 14.1798 2.24452 13.3899 2.03412C13.2858 2.00644 13.1767 2.00361 13.0713 2.02586C12.9659 2.0481 12.8672 2.09479 12.7832 2.16217L11.1856 3.43748C11.0619 3.43748 10.9381 3.43748 10.8144 3.43748L9.21248 2.15787C9.12837 2.09064 9.02965 2.0441 8.92427 2.02201C8.81888 1.99992 8.70978 2.00289 8.60576 2.03068C7.81578 2.24125 7.05721 2.55566 6.3499 2.96568C6.25736 3.01941 6.17864 3.09401 6.12001 3.18352C6.06138 3.27304 6.02445 3.375 6.01217 3.48131L5.78529 5.52318C5.69592 5.60855 5.60998 5.69448 5.52748 5.78099L3.48388 6.0156C3.3775 6.02798 3.27549 6.06504 3.18597 6.12382C3.09644 6.18261 3.02189 6.2615 2.96826 6.3542C2.55864 7.0616 2.24452 7.82015 2.03412 8.61006C2.00644 8.71415 2.00361 8.82328 2.02586 8.92867C2.0481 9.03406 2.09479 9.13274 2.16217 9.21677L3.43748 10.8144C3.43748 10.9381 3.43748 11.0619 3.43748 11.1856L2.15787 12.7875C2.09064 12.8716 2.0441 12.9703 2.02201 13.0757C1.99992 13.1811 2.00289 13.2902 2.03068 13.3942C2.24088 14.1843 2.5553 14.9429 2.96568 15.6501C3.01941 15.7426 3.09401 15.8213 3.18352 15.8799C3.27304 15.9386 3.375 15.9755 3.48131 15.9878L5.51974 16.2147C5.60511 16.304 5.69105 16.39 5.77756 16.4725L6.0156 18.5161C6.02798 18.6225 6.06504 18.7245 6.12382 18.814C6.18261 18.9035 6.2615 18.9781 6.3542 19.0317C7.0616 19.4413 7.82015 19.7554 8.61006 19.9658C8.71415 19.9935 8.82328 19.9963 8.92867 19.9741C9.03406 19.9519 9.13274 19.9052 9.21677 19.8378L10.8144 18.5625C10.9381 18.5659 11.0619 18.5659 11.1856 18.5625L12.7875 19.8447C12.8716 19.9119 12.9703 19.9584 13.0757 19.9805C13.1811 20.0026 13.2902 19.9996 13.3942 19.9719C14.1843 19.7617 14.9429 19.4472 15.6501 19.0369C15.7426 18.9831 15.8213 18.9085 15.8799 18.819C15.9386 18.7295 15.9755 18.6275 15.9878 18.5212L16.2147 16.4828C16.304 16.398 16.39 16.3121 16.4725 16.225L18.5161 15.9844C18.6225 15.972 18.7245 15.9349 18.814 15.8761C18.9035 15.8173 18.9781 15.7385 19.0317 15.6458C19.4413 14.9384 19.7554 14.1798 19.9658 13.3899C19.9935 13.2858 19.9963 13.1767 19.9741 13.0713C19.9519 12.9659 19.9052 12.8672 19.8378 12.7832L18.5625 11.1856ZM17.1789 10.627C17.1935 10.8754 17.1935 11.1245 17.1789 11.3729C17.1686 11.543 17.2219 11.7109 17.3284 11.8439L18.5479 13.3676C18.4079 13.8123 18.2288 14.2436 18.0125 14.6566L16.0703 14.8766C15.9012 14.8954 15.745 14.9762 15.632 15.1035C15.4666 15.2895 15.2904 15.4657 15.1044 15.6311C14.9771 15.7441 14.8963 15.9003 14.8775 16.0694L14.6618 18.0099C14.2488 18.2263 13.8174 18.4055 13.3727 18.5453L11.8482 17.3258C11.7262 17.2284 11.5746 17.1753 11.4185 17.1754H11.3772C11.1288 17.1901 10.8797 17.1901 10.6313 17.1754C10.4612 17.1652 10.2934 17.2185 10.1604 17.325L8.6324 18.5453C8.1877 18.4054 7.75632 18.2262 7.34334 18.0099L7.12334 16.0703C7.10456 15.9012 7.02372 15.745 6.89646 15.632C6.71042 15.4666 6.53423 15.2904 6.36881 15.1044C6.25583 14.9771 6.09966 14.8963 5.93053 14.8775L3.99006 14.6609C3.77366 14.248 3.59449 13.8166 3.45467 13.3719L4.67412 11.8473C4.7806 11.7143 4.83389 11.5465 4.82365 11.3764C4.80904 11.128 4.80904 10.8789 4.82365 10.6304C4.83389 10.4604 4.7806 10.2925 4.67412 10.1595L3.45467 8.6324C3.59459 8.1877 3.77376 7.75632 3.99006 7.34334L5.92967 7.12334C6.0988 7.10456 6.25497 7.02372 6.36795 6.89646C6.53337 6.71042 6.70956 6.53423 6.8956 6.36881C7.02337 6.25575 7.10454 6.09923 7.12334 5.92967L7.33904 3.99006C7.75197 3.77366 8.18337 3.59449 8.6281 3.45467L10.1526 4.67412C10.2857 4.7806 10.4535 4.83389 10.6236 4.82365C10.872 4.80904 11.1211 4.80904 11.3695 4.82365C11.5396 4.83389 11.7074 4.7806 11.8404 4.67412L13.3676 3.45467C13.8123 3.59459 14.2436 3.77376 14.6566 3.99006L14.8766 5.92967C14.8954 6.0988 14.9762 6.25497 15.1035 6.36795C15.2895 6.53337 15.4657 6.70956 15.6311 6.8956C15.7441 7.02287 15.9003 7.1037 16.0694 7.12248L18.0099 7.33818C18.2263 7.75111 18.4055 8.18251 18.5453 8.62724L17.3258 10.1518C17.2183 10.2859 17.165 10.4555 17.1763 10.627H17.1789Z" fill="#000"/>
</svg>
